<svg width="21" height="20" viewBox="0 0 21 20" fill="none" xmlns="http://www.w3.org/2000/svg">
<path fill-rule="evenodd" clip-rule="evenodd" d="M10.6666 0C5.14363 0 0.666626 4.484 0.666626 10.017C0.666626 14.442 3.53163 18.197 7.50563 19.521C8.00563 19.613 8.18763 19.304 8.18763 19.038C8.18763 18.801 8.17963 18.17 8.17463 17.335C5.39263 17.94 4.80563 15.992 4.80563 15.992C4.35163 14.834 3.69563 14.526 3.69563 14.526C2.78763 13.906 3.76463 13.918 3.76463 13.918C4.76763 13.988 5.29563 14.95 5.29563 14.95C6.18763 16.48 7.63663 16.038 8.20563 15.782C8.29763 15.135 8.55563 14.694 8.84163 14.444C6.62163 14.191 4.28663 13.331 4.28663 9.493C4.28663 8.4 4.67663 7.505 5.31563 6.805C5.21263 6.552 4.86963 5.533 5.41363 4.155C5.41363 4.155 6.25363 3.885 8.16363 5.181C8.97939 4.95851 9.82106 4.84519 10.6666 4.844C11.5166 4.848 12.3716 4.959 13.1706 5.181C15.0796 3.885 15.9176 4.154 15.9176 4.154C16.4636 5.533 16.1206 6.552 16.0176 6.805C16.6576 7.505 17.0456 8.4 17.0456 9.493C17.0456 13.341 14.7066 14.188 12.4796 14.435C12.8386 14.745 13.1576 15.356 13.1576 16.291C13.1576 17.629 13.1456 18.71 13.1456 19.038C13.1456 19.306 13.3256 19.618 13.8336 19.52C15.8249 18.8521 17.556 17.5753 18.7821 15.87C20.0082 14.1648 20.6675 12.1173 20.6666 10.017C20.6666 4.484 16.1886 0 10.6666 0Z" fill="#6B7280"/>
</svg>
